<svg xmlns="http://www.w3.org/2000/svg" viewBox="0 0 800 1000" width="800" height="1000"><defs><filter id="blur" x="-30%" y="-30%" width="160%" height="160%"><feGaussianBlur stdDeviation="16"/></filter><filter id="soft" x="-10%" y="-10%" width="120%" height="120%"><feGaussianBlur stdDeviation="2.5"/></filter><linearGradient id="bg" x1="0" y1="0" x2="0" y2="1"><stop offset="0" stop-color="#f7dcd7"/><stop offset="1" stop-color="#fbf3ea"/></linearGradient><linearGradient id="skin" x1="0" y1="0" x2="0" y2="1"><stop offset="0" stop-color="#f0c9ab"/><stop offset="1" stop-color="#deae8c"/></linearGradient><linearGradient id="veil" x1="0" y1="0" x2="0" y2="1"><stop offset="0" stop-color="#ffffff" stop-opacity="0.85"/><stop offset="1" stop-color="#ffffff" stop-opacity="0.15"/></linearGradient><linearGradient id="hair" x1="0" y1="0" x2="0" y2="1"><stop offset="0" stop-color="#5a3a2b"/><stop offset="1" stop-color="#2f1e17"/></linearGradient></defs><rect width="800" height="1000" fill="url(#bg)"/><g filter="url(#blur)" opacity="0.6"><circle cx="778.6" cy="285.5" r="94.1" fill="#ffffff"/><circle cx="162.4" cy="415.3" r="109.7" fill="#f7c9c9"/><circle cx="185.8" cy="509.3" r="97.1" fill="#f3e2c7"/><circle cx="14.1" cy="107.4" r="59" fill="#e5b9c9"/><circle cx="54.2" cy="591.3" r="58.6" fill="#ffffff"/><circle cx="468.5" cy="321.7" r="93.3" fill="#f7c9c9"/><circle cx="698.2" cy="530.7" r="71.3" fill="#f3e2c7"/><circle cx="443" cy="399.3" r="90.4" fill="#e5b9c9"/><circle cx="61.5" cy="333.3" r="42.4" fill="#ffffff"/></g><path d="M180 330C120 560 110 760 100 1000L700 1000C690 760 680 560 620 330C560 270 240 270 180 330Z" fill="url(#veil)"/><path d="M120 1000C120 820 250 760 400 760C550 760 680 820 680 1000Z" fill="#fbfaf6"/><path d="M262 800C300 840 500 840 538 800L560 1000L240 1000Z" fill="#efe9de"/><path d="M220 800C250 760 330 750 400 850C470 750 550 760 580 800" fill="url(#skin)"/><rect x="356" y="650" width="88" height="130" rx="34" fill="url(#skin)"/><path d="M300 800C330 830 370 850 400 860C430 850 470 830 500 800L520 830C470 880 330 880 280 830Z" fill="#ffffff"/><ellipse cx="400" cy="522" rx="112" ry="140" fill="url(#skin)"/><path d="M284 520C262 370 340 300 420 302C500 304 546 380 520 520C508 440 470 420 400 424C330 428 298 450 284 520Z" fill="url(#hair)"/><circle cx="400" cy="296" r="58" fill="url(#hair)"/><circle cx="400" cy="296" r="30" fill="#4a3024"/><g><circle cx="330" cy="336" r="18" fill="#ffffff"/><circle cx="330" cy="336" r="13.3" fill="#f7d6d6"/><circle cx="330.9" cy="335.28" r="9" fill="#ffffff"/><circle cx="330" cy="336" r="5.4" fill="#f2c4c4"/><path d="M319.2 337.8Q330 346.8 340.8 337.8" stroke="#f2c4c4" stroke-width="1.1" fill="none" opacity=".5"/></g><g><circle cx="400" cy="322" r="20" fill="#ffffff"/><circle cx="400" cy="322" r="14.8" fill="#f7d6d6"/><circle cx="401" cy="321.2" r="10" fill="#ffffff"/><circle cx="400" cy="322" r="6" fill="#f2c4c4"/><path d="M388 324Q400 334 412 324" stroke="#f2c4c4" stroke-width="1.2" fill="none" opacity=".5"/></g><g><circle cx="470" cy="338" r="17" fill="#ffffff"/><circle cx="470" cy="338" r="12.6" fill="#f7d6d6"/><circle cx="470.85" cy="337.32" r="8.5" fill="#ffffff"/><circle cx="470" cy="338" r="5.1" fill="#f2c4c4"/><path d="M459.8 339.7Q470 348.2 480.2 339.7" stroke="#f2c4c4" stroke-width="1" fill="none" opacity=".5"/></g><path d="M358 570Q400 606 442 570" stroke="#c58f78" stroke-width="5" fill="none" stroke-linecap="round"/><path d="M400 990L360 880M400 990L440 880M400 990L400 870" stroke="#5f7f58" stroke-width="10" stroke-linecap="round"/><g><circle cx="350" cy="860" r="34" fill="#f2c1c4"/><circle cx="350" cy="860" r="25.2" fill="#fff5f3"/><circle cx="351.7" cy="858.64" r="17" fill="#f2c1c4"/><circle cx="350" cy="860" r="10.2" fill="#eeb4b9"/><path d="M329.6 863.4Q350 880.4 370.4 863.4" stroke="#eeb4b9" stroke-width="2" fill="none" opacity=".5"/></g><g><circle cx="430" cy="858" r="36" fill="#ffffff"/><circle cx="430" cy="858" r="26.6" fill="#fff5f3"/><circle cx="431.8" cy="856.56" r="18" fill="#ffffff"/><circle cx="430" cy="858" r="10.8" fill="#eeb4b9"/><path d="M408.4 861.6Q430 879.6 451.6 861.6" stroke="#eeb4b9" stroke-width="2.2" fill="none" opacity=".5"/></g><g><circle cx="392" cy="838" r="32" fill="#f7d6d6"/><circle cx="392" cy="838" r="23.7" fill="#fff5f3"/><circle cx="393.6" cy="836.72" r="16" fill="#f7d6d6"/><circle cx="392" cy="838" r="9.6" fill="#eeb4b9"/><path d="M372.8 841.2Q392 857.2 411.2 841.2" stroke="#eeb4b9" stroke-width="1.9" fill="none" opacity=".5"/></g><g><circle cx="470" cy="890" r="26" fill="#f2c1c4"/><circle cx="470" cy="890" r="19.2" fill="#fff5f3"/><circle cx="471.3" cy="888.96" r="13" fill="#f2c1c4"/><circle cx="470" cy="890" r="7.8" fill="#eeb4b9"/><path d="M454.4 892.6Q470 905.6 485.6 892.6" stroke="#eeb4b9" stroke-width="1.6" fill="none" opacity=".5"/></g><g><circle cx="320" cy="895" r="26" fill="#ffffff"/><circle cx="320" cy="895" r="19.2" fill="#fff5f3"/><circle cx="321.3" cy="893.96" r="13" fill="#ffffff"/><circle cx="320" cy="895" r="7.8" fill="#eeb4b9"/><path d="M304.4 897.6Q320 910.6 335.6 897.6" stroke="#eeb4b9" stroke-width="1.6" fill="none" opacity=".5"/></g><path d="M0 0C12 -11.200000000000001 30 -8.8 40 0C30 8.8 12 11.200000000000001 0 0Z" transform="translate(300 900) rotate(200)" fill="#5f7f58"/><path d="M0 0C12 -11.200000000000001 30 -8.8 40 0C30 8.8 12 11.200000000000001 0 0Z" transform="translate(500 905) rotate(-20)" fill="#5f7f58"/><path d="M0 0C10.799999999999999 -10.080000000000002 27 -7.92 36 0C27 7.92 10.799999999999999 10.080000000000002 0 0Z" transform="translate(400 800) rotate(-90)" fill="#5f7f58"/></svg>
