<svg xmlns="http://www.w3.org/2000/svg" viewBox="0 0 800 1000" width="800" height="1000"><defs><filter id="blur" x="-30%" y="-30%" width="160%" height="160%"><feGaussianBlur stdDeviation="16"/></filter><filter id="soft" x="-10%" y="-10%" width="120%" height="120%"><feGaussianBlur stdDeviation="2.5"/></filter><linearGradient id="sky" x1="0" y1="0" x2="0" y2="1"><stop offset="0" stop-color="#2f3a6b"/><stop offset="0.42" stop-color="#a4658f"/><stop offset="0.72" stop-color="#f0a48f"/><stop offset="1" stop-color="#ffd8a8"/></linearGradient><radialGradient id="glow"><stop offset="0" stop-color="#ffe7b8" stop-opacity="0.9"/><stop offset="1" stop-color="#ffe7b8" stop-opacity="0"/></radialGradient><linearGradient id="ground" x1="0" y1="0" x2="0" y2="1"><stop offset="0" stop-color="#3b2a4d"/><stop offset="1" stop-color="#1c1330"/></linearGradient></defs><rect width="800" height="1000" fill="url(#sky)"/><g filter="url(#blur)" opacity="0.4"><circle cx="790.1" cy="507.8" r="50.8" fill="#ffe9ac"/><circle cx="537.5" cy="226.5" r="36.5" fill="#f7c9c9"/><circle cx="636.4" cy="624.4" r="32.7" fill="#c9b8ee"/><circle cx="456.8" cy="503.1" r="44" fill="#ffe9ac"/><circle cx="328.4" cy="466.4" r="67.8" fill="#f7c9c9"/><circle cx="1.2" cy="304.4" r="54.3" fill="#c9b8ee"/><circle cx="329.4" cy="206.6" r="49.1" fill="#ffe9ac"/><circle cx="87.7" cy="580.5" r="44.8" fill="#f7c9c9"/><circle cx="760.6" cy="395.5" r="45.2" fill="#c9b8ee"/><circle cx="174.1" cy="369.2" r="59.1" fill="#ffe9ac"/></g><circle cx="400" cy="520" r="330" fill="url(#glow)"/><path d="M40 190Q400 340 760 190" stroke="#7a5b78" stroke-width="3" fill="none" opacity=".8"/><circle cx="40" cy="190" r="9" fill="#ffe9ac"/><circle cx="40" cy="190" r="34" fill="url(#glow)" opacity=".7"/><circle cx="91.4" cy="213.8" r="9" fill="#ffe9ac"/><circle cx="91.4" cy="213.8" r="34" fill="url(#glow)" opacity=".7"/><circle cx="142.9" cy="224.7" r="9" fill="#ffe9ac"/><circle cx="142.9" cy="224.7" r="34" fill="url(#glow)" opacity=".7"/><circle cx="194.3" cy="245.9" r="9" fill="#ffe9ac"/><circle cx="194.3" cy="245.9" r="34" fill="url(#glow)" opacity=".7"/><circle cx="245.7" cy="252.5" r="9" fill="#ffe9ac"/><circle cx="245.7" cy="252.5" r="34" fill="url(#glow)" opacity=".7"/><circle cx="297.1" cy="268.1" r="9" fill="#ffe9ac"/><circle cx="297.1" cy="268.1" r="34" fill="url(#glow)" opacity=".7"/><circle cx="348.6" cy="268" r="9" fill="#ffe9ac"/><circle cx="348.6" cy="268" r="34" fill="url(#glow)" opacity=".7"/><circle cx="400" cy="276" r="9" fill="#ffe9ac"/><circle cx="400" cy="276" r="34" fill="url(#glow)" opacity=".7"/><circle cx="451.4" cy="268" r="9" fill="#ffe9ac"/><circle cx="451.4" cy="268" r="34" fill="url(#glow)" opacity=".7"/><circle cx="502.9" cy="268.1" r="9" fill="#ffe9ac"/><circle cx="502.9" cy="268.1" r="34" fill="url(#glow)" opacity=".7"/><circle cx="554.3" cy="252.5" r="9" fill="#ffe9ac"/><circle cx="554.3" cy="252.5" r="34" fill="url(#glow)" opacity=".7"/><circle cx="605.7" cy="245.9" r="9" fill="#ffe9ac"/><circle cx="605.7" cy="245.9" r="34" fill="url(#glow)" opacity=".7"/><circle cx="657.1" cy="224.7" r="9" fill="#ffe9ac"/><circle cx="657.1" cy="224.7" r="34" fill="url(#glow)" opacity=".7"/><circle cx="708.6" cy="213.8" r="9" fill="#ffe9ac"/><circle cx="708.6" cy="213.8" r="34" fill="url(#glow)" opacity=".7"/><circle cx="760" cy="190" r="9" fill="#ffe9ac"/><circle cx="760" cy="190" r="34" fill="url(#glow)" opacity=".7"/><path d="M0 760C170 720 320 760 470 770C600 750 700 740 800 760L800 1000L0 1000Z" fill="url(#ground)"/><g transform="translate(400 812) scale(2.6)" fill="#120a24"><circle cx="-24" cy="-134" r="11"/><rect x="-39" y="-121" width="30" height="58" rx="9"/><rect x="-37" y="-66" width="11" height="66" rx="3"/><rect x="-22" y="-66" width="11" height="66" rx="3"/><circle cx="28" cy="-132" r="11"/><path d="M12 -112h32l16 112h-64z"/><path d="M20 -140c-6 12-6 30 2 42" stroke="#150d2a" stroke-width="5" fill="none"/><path d="M-10 -104L16 -100" stroke="#120a24" stroke-width="5"/></g><path d="M160 450Q160 470 180 470Q160 470 160 490Q160 470 140 470Q160 470 160 450Z" fill="#fff" opacity="0.9"/><path d="M650 394Q650 420 676 420Q650 420 650 446Q650 420 624 420Q650 420 650 394Z" fill="#fff" opacity="0.9"/><path d="M560 586Q560 600 574 600Q560 600 560 614Q560 600 546 600Q560 600 560 586Z" fill="#ffe9ac" opacity="1"/><path d="M230 608Q230 620 242 620Q230 620 230 632Q230 620 218 620Q230 620 230 608Z" fill="#ffe9ac" opacity="1"/></svg>
