<svg xmlns="http://www.w3.org/2000/svg" viewBox="0 0 800 1000" width="800" height="1000"><defs><filter id="blur" x="-30%" y="-30%" width="160%" height="160%"><feGaussianBlur stdDeviation="16"/></filter><filter id="soft" x="-10%" y="-10%" width="120%" height="120%"><feGaussianBlur stdDeviation="2.5"/></filter><linearGradient id="bg" x1="0" y1="0" x2="0" y2="1"><stop offset="0" stop-color="#f0d6d3"/><stop offset="1" stop-color="#faf1e6"/></linearGradient><linearGradient id="tier" x1="0" y1="0" x2="0" y2="1"><stop offset="0" stop-color="#fffdf8"/><stop offset="1" stop-color="#f1e6d6"/></linearGradient></defs><rect width="800" height="1000" fill="url(#bg)"/><g filter="url(#blur)" opacity="0.6"><circle cx="311" cy="819" r="76" fill="#ffffff"/><circle cx="470" cy="638.4" r="57.9" fill="#f7c9c9"/><circle cx="323.5" cy="827.4" r="52.3" fill="#f3e2c7"/><circle cx="55.9" cy="560.8" r="83.6" fill="#ffffff"/><circle cx="456.2" cy="952.3" r="46.5" fill="#f7c9c9"/><circle cx="350.8" cy="579.6" r="68.3" fill="#f3e2c7"/><circle cx="620" cy="182.1" r="86.5" fill="#ffffff"/><circle cx="600.2" cy="833.1" r="62.1" fill="#f7c9c9"/><circle cx="576.6" cy="548.9" r="60.1" fill="#f3e2c7"/></g><rect y="800" width="800" height="200" fill="#e9d6c2"/><rect y="800" width="800" height="14" fill="#f8efe4"/><rect x="170" y="690" width="460" height="110" rx="14" fill="url(#tier)"/><circle cx="183" cy="694" r="13" fill="#fffdf8"/><circle cx="209" cy="694" r="13" fill="#fffdf8"/><circle cx="235" cy="694" r="13" fill="#fffdf8"/><circle cx="261" cy="694" r="13" fill="#fffdf8"/><circle cx="287" cy="694" r="13" fill="#fffdf8"/><circle cx="313" cy="694" r="13" fill="#fffdf8"/><circle cx="339" cy="694" r="13" fill="#fffdf8"/><circle cx="365" cy="694" r="13" fill="#fffdf8"/><circle cx="391" cy="694" r="13" fill="#fffdf8"/><circle cx="417" cy="694" r="13" fill="#fffdf8"/><circle cx="443" cy="694" r="13" fill="#fffdf8"/><circle cx="469" cy="694" r="13" fill="#fffdf8"/><circle cx="495" cy="694" r="13" fill="#fffdf8"/><circle cx="521" cy="694" r="13" fill="#fffdf8"/><circle cx="547" cy="694" r="13" fill="#fffdf8"/><circle cx="573" cy="694" r="13" fill="#fffdf8"/><circle cx="599" cy="694" r="13" fill="#fffdf8"/><rect x="170" y="784" width="460" height="16" rx="8" fill="#e9cdbb" opacity=".7"/><rect x="245" y="560" width="310" height="130" rx="14" fill="url(#tier)"/><circle cx="258" cy="564" r="13" fill="#fffdf8"/><circle cx="284" cy="564" r="13" fill="#fffdf8"/><circle cx="310" cy="564" r="13" fill="#fffdf8"/><circle cx="336" cy="564" r="13" fill="#fffdf8"/><circle cx="362" cy="564" r="13" fill="#fffdf8"/><circle cx="388" cy="564" r="13" fill="#fffdf8"/><circle cx="414" cy="564" r="13" fill="#fffdf8"/><circle cx="440" cy="564" r="13" fill="#fffdf8"/><circle cx="466" cy="564" r="13" fill="#fffdf8"/><circle cx="492" cy="564" r="13" fill="#fffdf8"/><circle cx="518" cy="564" r="13" fill="#fffdf8"/><rect x="245" y="674" width="310" height="16" rx="8" fill="#e9cdbb" opacity=".7"/><rect x="310" y="450" width="180" height="110" rx="14" fill="url(#tier)"/><circle cx="323" cy="454" r="13" fill="#fffdf8"/><circle cx="349" cy="454" r="13" fill="#fffdf8"/><circle cx="375" cy="454" r="13" fill="#fffdf8"/><circle cx="401" cy="454" r="13" fill="#fffdf8"/><circle cx="427" cy="454" r="13" fill="#fffdf8"/><circle cx="453" cy="454" r="13" fill="#fffdf8"/><rect x="310" y="544" width="180" height="16" rx="8" fill="#e9cdbb" opacity=".7"/><g><circle cx="210" cy="720" r="22" fill="#f2b6ba"/><circle cx="210" cy="720" r="16.3" fill="#fff4f1"/><circle cx="211.1" cy="719.12" r="11" fill="#f2b6ba"/><circle cx="210" cy="720" r="6.6" fill="#d98a93"/><path d="M196.8 722.2Q210 733.2 223.2 722.2" stroke="#d98a93" stroke-width="1.3" fill="none" opacity=".5"/></g><g><circle cx="300" cy="700" r="27" fill="#ffffff"/><circle cx="300" cy="700" r="20" fill="#fff4f1"/><circle cx="301.35" cy="698.92" r="13.5" fill="#ffffff"/><circle cx="300" cy="700" r="8.1" fill="#d98a93"/><path d="M283.8 702.7Q300 716.2 316.2 702.7" stroke="#d98a93" stroke-width="1.6" fill="none" opacity=".5"/></g><g><circle cx="420" cy="712" r="32" fill="#e9959d"/><circle cx="420" cy="712" r="23.7" fill="#fff4f1"/><circle cx="421.6" cy="710.72" r="16" fill="#e9959d"/><circle cx="420" cy="712" r="9.6" fill="#d98a93"/><path d="M400.8 715.2Q420 731.2 439.2 715.2" stroke="#d98a93" stroke-width="1.9" fill="none" opacity=".5"/></g><g><circle cx="520" cy="704" r="22" fill="#f2b6ba"/><circle cx="520" cy="704" r="16.3" fill="#fff4f1"/><circle cx="521.1" cy="703.12" r="11" fill="#f2b6ba"/><circle cx="520" cy="704" r="6.6" fill="#d98a93"/><path d="M506.8 706.2Q520 717.2 533.2 706.2" stroke="#d98a93" stroke-width="1.3" fill="none" opacity=".5"/></g><g><circle cx="600" cy="724" r="27" fill="#ffffff"/><circle cx="600" cy="724" r="20" fill="#fff4f1"/><circle cx="601.35" cy="722.92" r="13.5" fill="#ffffff"/><circle cx="600" cy="724" r="8.1" fill="#d98a93"/><path d="M583.8 726.7Q600 740.2 616.2 726.7" stroke="#d98a93" stroke-width="1.6" fill="none" opacity=".5"/></g><g><circle cx="330" cy="590" r="32" fill="#e9959d"/><circle cx="330" cy="590" r="23.7" fill="#fff4f1"/><circle cx="331.6" cy="588.72" r="16" fill="#e9959d"/><circle cx="330" cy="590" r="9.6" fill="#d98a93"/><path d="M310.8 593.2Q330 609.2 349.2 593.2" stroke="#d98a93" stroke-width="1.9" fill="none" opacity=".5"/></g><g><circle cx="470" cy="580" r="22" fill="#f2b6ba"/><circle cx="470" cy="580" r="16.3" fill="#fff4f1"/><circle cx="471.1" cy="579.12" r="11" fill="#f2b6ba"/><circle cx="470" cy="580" r="6.6" fill="#d98a93"/><path d="M456.8 582.2Q470 593.2 483.2 582.2" stroke="#d98a93" stroke-width="1.3" fill="none" opacity=".5"/></g><g><circle cx="400" cy="470" r="27" fill="#ffffff"/><circle cx="400" cy="470" r="20" fill="#fff4f1"/><circle cx="401.35" cy="468.92" r="13.5" fill="#ffffff"/><circle cx="400" cy="470" r="8.1" fill="#d98a93"/><path d="M383.8 472.7Q400 486.2 416.2 472.7" stroke="#d98a93" stroke-width="1.6" fill="none" opacity=".5"/></g><g><circle cx="360" cy="480" r="32" fill="#e9959d"/><circle cx="360" cy="480" r="23.7" fill="#fff4f1"/><circle cx="361.6" cy="478.72" r="16" fill="#e9959d"/><circle cx="360" cy="480" r="9.6" fill="#d98a93"/><path d="M340.8 483.2Q360 499.2 379.2 483.2" stroke="#d98a93" stroke-width="1.9" fill="none" opacity=".5"/></g><path d="M0 0C9 -8.4 22.5 -6.6 30 0C22.5 6.6 9 8.4 0 0Z" transform="translate(250 690) rotate(200)" fill="#5f7f58"/><path d="M0 0C9 -8.4 22.5 -6.6 30 0C22.5 6.6 9 8.4 0 0Z" transform="translate(560 690) rotate(-20)" fill="#5f7f58"/><path d="M0 0C7.8 -7.280000000000001 19.5 -5.72 26 0C19.5 5.72 7.8 7.280000000000001 0 0Z" transform="translate(360 560) rotate(200)" fill="#5f7f58"/><path d="M0 0C7.8 -7.280000000000001 19.5 -5.72 26 0C19.5 5.72 7.8 7.280000000000001 0 0Z" transform="translate(450 560) rotate(-20)" fill="#5f7f58"/><path d="M400 440l-26-30a16 16 0 0 1 26-20a16 16 0 0 1 26 20z" fill="#d98f8f" transform="translate(0 -20)"/><path d="M400 448V420" stroke="#d9b26a" stroke-width="4"/><path d="M230 380Q230 400 250 400Q230 400 230 420Q230 400 210 400Q230 400 230 380Z" fill="#fff" opacity="1"/><path d="M590 364Q590 380 606 380Q590 380 590 396Q590 380 574 380Q590 380 590 364Z" fill="#fff" opacity="1"/><path d="M120 548Q120 560 132 560Q120 560 120 572Q120 560 108 560Q120 560 120 548Z" fill="#fff" opacity="1"/></svg>
